<svg id="Layer_1" data-name="Layer 1" xmlns="http://www.w3.org/2000/svg" xmlns:xlink="http://www.w3.org/1999/xlink" viewBox="0 0 126.66 121.03"><defs><style>.cls-1{fill:none;}.cls-2{clip-path:url(#clip-path);}.cls-3{fill:#94cc00;}.cls-4{fill:#00b6d7;}.cls-5{fill:#007fb2;}.cls-6{fill:#ffb800;}.cls-7{fill:#252f38;}</style><clipPath id="clip-path" transform="translate(-344.07 -243.72)"><path class="cls-1" d="M450.91,256.23l-27.8,11.44s29.33,14.64,25.15,51.88c-4.74,29-26.36,38.36-26.36,38.36s28.17-6.28,43.54-33.89C484.24,282.73,450.91,256.23,450.91,256.23Z"/></clipPath></defs><title>aarch64_logo_new_master</title><g class="cls-2"><path class="cls-3" d="M415.18,243.72a55.55,55.55,0,0,0-54.63,45.57,52.34,52.34,0,1,1,75.37,61.5,55.54,55.54,0,0,0-20.74-107.07Z" transform="translate(-344.07 -243.72)"/><path class="cls-4" d="M407.91,247.62a55.55,55.55,0,0,0-54.63,45.57,52.34,52.34,0,1,1,75.37,61.5,55.54,55.54,0,0,0-20.74-107.07Z" transform="translate(-344.07 -243.72)"/></g><path class="cls-5" d="M401.13,251.06a55.55,55.55,0,0,0-54.63,45.57,52.34,52.34,0,1,1,75.37,61.51,55.55,55.55,0,0,0-20.74-107.08Z" transform="translate(-344.07 -243.72)"/><circle class="cls-6" cx="52.33" cy="68.7" r="52.33"/><path class="cls-7" d="M377.92,286.59H376.4a.64.64,0,0,1-.42-.13.87.87,0,0,1-.24-.32l-1-2.66h-5.19l-1,2.66a.74.74,0,0,1-.23.31.59.59,0,0,1-.42.14h-1.52l4.78-12h2Zm-3.71-4.52-1.66-4.4a12.88,12.88,0,0,1-.41-1.3c-.06.26-.13.5-.2.72s-.14.42-.2.59l-1.66,4.39Z" transform="translate(-344.07 -243.72)"/><path class="cls-7" d="M389.41,286.59H387.9a.64.64,0,0,1-.42-.13.7.7,0,0,1-.24-.32l-1-2.66H381l-1,2.66a.87.87,0,0,1-.24.31.59.59,0,0,1-.42.14h-1.51l4.78-12h2Zm-3.71-4.52-1.65-4.4a10.74,10.74,0,0,1-.41-1.3c-.06.26-.13.5-.2.72s-.14.42-.21.59l-1.65,4.39Z" transform="translate(-344.07 -243.72)"/><path class="cls-7" d="M400,286.59h-1.75a.81.81,0,0,1-.76-.4l-2.81-4.06a1,1,0,0,0-.31-.3,1.09,1.09,0,0,0-.5-.09h-1.09v4.85h-2v-12h3.55a7.74,7.74,0,0,1,2.05.24,3.87,3.87,0,0,1,1.41.69,2.66,2.66,0,0,1,.81,1.08,3.45,3.45,0,0,1,.27,1.39,3.52,3.52,0,0,1-.19,1.18,3.37,3.37,0,0,1-1.42,1.76,5.06,5.06,0,0,1-1.18.51,1.8,1.8,0,0,1,.62.61Zm-5.68-6.28a3.72,3.72,0,0,0,1.17-.16,2.26,2.26,0,0,0,.84-.46,1.8,1.8,0,0,0,.5-.69,2.44,2.44,0,0,0,.17-.9,1.82,1.82,0,0,0-.65-1.51,3.14,3.14,0,0,0-2-.52h-1.59v4.24Z" transform="translate(-344.07 -243.72)"/><path class="cls-7" d="M409.68,283.91a.38.38,0,0,1,.28.12l.78.85a5.11,5.11,0,0,1-1.81,1.37,6.25,6.25,0,0,1-2.56.48,5.89,5.89,0,0,1-2.39-.46,5.15,5.15,0,0,1-1.82-1.27,5.53,5.53,0,0,1-1.16-1.95,7.07,7.07,0,0,1-.41-2.49,6.93,6.93,0,0,1,.43-2.49,5.89,5.89,0,0,1,1.21-1.95,5.55,5.55,0,0,1,1.88-1.26,6.09,6.09,0,0,1,2.41-.46,5.69,5.69,0,0,1,2.3.43,5.6,5.6,0,0,1,1.74,1.12l-.64.91a.61.61,0,0,1-.16.16.39.39,0,0,1-.25.07.71.71,0,0,1-.39-.15,5.13,5.13,0,0,0-.54-.35,4.44,4.44,0,0,0-.83-.34,4.29,4.29,0,0,0-1.24-.16,3.87,3.87,0,0,0-1.58.31,3.4,3.4,0,0,0-1.24.87,4.07,4.07,0,0,0-.81,1.41,5.75,5.75,0,0,0-.29,1.88,5.57,5.57,0,0,0,.3,1.9,4.08,4.08,0,0,0,.83,1.41,3.58,3.58,0,0,0,1.24.87,3.9,3.9,0,0,0,1.53.3,6.09,6.09,0,0,0,.9-.05,3.12,3.12,0,0,0,.73-.18,3.41,3.41,0,0,0,.64-.3,3.85,3.85,0,0,0,.59-.45A.49.49,0,0,1,409.68,283.91Z" transform="translate(-344.07 -243.72)"/><path class="cls-7" d="M422.42,274.54v12h-2v-5.36H414.4v5.36h-2v-12h2v5.27h6.06v-5.27Z" transform="translate(-344.07 -243.72)"/><path class="cls-7" d="M374.39,313.17l-.95,1.19c-.31.37-.6.75-.9,1.13a13.51,13.51,0,0,1,3.17-1.29,14.2,14.2,0,0,1,3.7-.47,15,15,0,0,1,5,.86,12.23,12.23,0,0,1,4.25,2.58,12.48,12.48,0,0,1,2.94,4.23,14.49,14.49,0,0,1,1.09,5.82,15,15,0,0,1-1.14,5.86,14.32,14.32,0,0,1-3.22,4.76,15.35,15.35,0,0,1-5,3.2,18.25,18.25,0,0,1-12.75,0,13.57,13.57,0,0,1-4.81-3.18,13.93,13.93,0,0,1-3.06-4.94,18.45,18.45,0,0,1-1.07-6.43A17.56,17.56,0,0,1,363,320.1a31,31,0,0,1,4.08-7.06l11.1-14.9a4.11,4.11,0,0,1,1.46-1.13,4.85,4.85,0,0,1,2.15-.47h6Zm2.48,23.46a10,10,0,0,0,3.73-.68,8.75,8.75,0,0,0,2.91-1.86,8.39,8.39,0,0,0,1.86-2.83,9.29,9.29,0,0,0,.66-3.54,10.15,10.15,0,0,0-.64-3.72,7.73,7.73,0,0,0-1.82-2.77,7.89,7.89,0,0,0-2.82-1.74,10.32,10.32,0,0,0-3.63-.61,9.43,9.43,0,0,0-3.68.68,8.26,8.26,0,0,0-4.6,4.68,9.11,9.11,0,0,0-.62,3.39,11.3,11.3,0,0,0,.56,3.67,7.82,7.82,0,0,0,1.66,2.83,7.48,7.48,0,0,0,2.72,1.84A9.71,9.71,0,0,0,376.87,336.63Z" transform="translate(-344.07 -243.72)"/><path class="cls-7" d="M429.85,325v3.89a1.4,1.4,0,0,1-.36,1,1.34,1.34,0,0,1-1.08.41h-4.8v11.42h-5.87V330.29H398.2a1.93,1.93,0,0,1-1.91-1.47l-.69-3.45,21.67-28.86h6.34V325Zm-12.11,0v-16.5a36.41,36.41,0,0,1,.29-4.33L402.84,325Z" transform="translate(-344.07 -243.72)"/></svg>