<?xml version="1.0" encoding="UTF-8" standalone="no"?><!DOCTYPE svg PUBLIC "-//W3C//DTD SVG 1.1//EN" "http://www.w3.org/Graphics/SVG/1.1/DTD/svg11.dtd"><svg width="100%" height="100%" viewBox="0 0 3000 1052" version="1.1" xmlns="http://www.w3.org/2000/svg" xmlns:xlink="http://www.w3.org/1999/xlink" xml:space="preserve" xmlns:serif="http://www.serif.com/" style="fill-rule:evenodd;clip-rule:evenodd;stroke-linejoin:round;stroke-miterlimit:2;"><g><path d="M2901,0.6c-0.825,0.22 -42.9,5.35 -93.5,11.4c-50.613,6.052 -260.7,31.231 -467,55.97c-774,92.817 -1160.83,139.208 -1455,174.489c-166.7,19.994 -433.79,52.018 -593.75,71.191l-290.75,34.85l0,703.4l3.25,-0.5c1.786,-0.274 44.45,-5.407 94.75,-11.4c50.329,-5.995 335.6,-40.192 634,-76c298.4,-35.807 641.939,-77.023 763.5,-91.6c121.576,-14.578 410.4,-49.219 642,-77c231.6,-27.781 518.624,-62.174 638,-76.45c119.4,-14.278 218.461,-26.197 220.25,-26.5l3.25,-0.55l0,-345.95l0,-345.95l-48.75,0.1c-26.8,0.055 -49.426,0.281 -50.25,0.5Zm-93,309.4l0,129l3.7,-0.533c14.8,-2.134 52.805,-6.301 53.5,-5.867c0.439,0.275 0.8,13.3 0.8,28.9l0,28.4l-3.2,0.525c-3,0.492 -53.238,6.575 -54.3,6.575c-0.275,0 -0.5,20.5 -0.5,45.5c0,26.6 -0.374,45.5 -0.9,45.5c-0.496,0 -15.75,1.798 -33.95,4c-18.2,2.203 -33.298,4 -33.6,4c-0.303,0 -0.663,-20.4 -0.8,-45.3l-0.25,-45.3l-97.5,11.75c-53.6,6.46 -98.739,11.773 -100.25,11.8l-2.75,0.05l0.05,-32.25l0.05,-32.25l103.05,-136.5c56.696,-75.1 103.612,-137.287 104.3,-138.25c1.022,-1.43 6.25,-2.37 28.65,-5.15c15.1,-1.873 28.859,-3.444 30.65,-3.5l3.25,-0.1l0,129Zm-439,-72.553c14.8,2.545 33.546,6.8 34.6,7.853c0.602,0.603 -13.491,58.9 -14.723,60.9c-0.466,0.757 -2.677,0.606 -7.077,-0.482c-16.349,-4.043 -27.9,-5.196 -51.3,-5.123c-25.7,0.08 -39.001,1.845 -55.5,7.366c-38.705,12.95 -62.737,41.739 -71.989,86.239c-1.976,9.5 -5.011,32.582 -5.011,38.1c0,2.798 0.3,2.616 8.5,-5.147c23.352,-22.108 48.7,-32.81 88,-37.154c50.8,-5.616 94.736,11.076 116.876,44.401c19.363,29.146 23.669,72.8 11.105,112.6c-14.705,46.581 -53.281,84.637 -102.481,101.097c-34.7,11.609 -75.578,13.294 -104.2,4.294c-31.8,-9.999 -57.853,-32.049 -71.825,-60.791c-8.397,-17.274 -12.758,-33.4 -16.656,-61.6c-2.214,-16.007 -2.548,-82.4 -0.5,-99c3.431,-27.8 9.152,-53.819 15.789,-71.8c22.397,-60.684 66.192,-100.437 128.392,-116.542c33.2,-8.597 67.653,-10.429 98,-5.211Zm-718,285.353l0,203.8l-31.75,3.75c-17.5,2.067 -33.658,4.02 -36,4.35l-4.25,0.6l-0.25,-145.15l-0.25,-145.15l-52.5,89.6c-33.575,57.3 -53.221,89.874 -54.5,90.36c-2.3,0.874 -57.459,7.487 -57.887,6.94c-0.172,-0.219 -23.701,-34.85 -52.213,-76.85l-51.9,-76.45l-0.25,144.25c-0.198,114.1 -0.501,144.337 -1.45,144.664c-0.991,0.342 -67.501,8.487 -69.3,8.486c-0.5,0 -0.7,-406.984 -0.2,-407.066c0.11,-0.019 92.9,-11.216 206.2,-24.884c113.3,-13.667 206.112,-24.895 206.25,-24.95c0.137,-0.055 0.25,91.6 0.25,203.7Zm-665.5,-115.753c52.6,8.758 84.519,40.606 91.456,91.253c1.388,10.135 1.373,29.7 -0.033,41.2c-5.404,44.221 -26.823,72.945 -71.323,95.648c-5.6,2.857 -10.212,5.242 -10.35,5.352c-0.138,0.111 16.151,34.8 36.25,77.2c20.098,42.4 36.5,77.405 36.5,77.9c0,1.1 -77.173,10.533 -78.2,9.559c-0.44,-0.417 -15.651,-31.609 -33.75,-69.209c-28.787,-59.8 -33.241,-68.475 -35.25,-68.65c-1.268,-0.11 -25.2,2.584 -53.3,6l-51,6.2l-0.25,73.75c-0.197,58 -0.517,73.75 -1.5,73.75c-0.69,0 -16.05,1.794 -34.25,4c-18.2,2.207 -33.561,4 -34.25,4c-0.997,0 -1.25,-41.3 -1.25,-203.4l0,-203.4l4.2,-0.61c14.9,-2.167 182.367,-21.892 191.3,-22.533c14.4,-1.033 31.348,-0.283 45,1.99Zm-555.45,129.453c22.773,36.9 57.725,93.506 77.8,126c20.037,32.434 54.213,87.75 75.9,122.85c21.686,35.1 39.269,64.031 39.05,64.25c-0.583,0.583 -468,56.522 -469.5,56.189c-0.801,-0.178 43.44,-83.589 115.25,-217.289c64.129,-119.4 117.022,-217.832 117.6,-218.85c0.567,-1 1.394,-1.459 1.8,-1c0.413,0.469 19.326,30.95 42.1,67.85Zm1560.95,-29.05l0,34.45l-3.3,0.557c-6.1,1.028 -187.527,22.543 -190.1,22.543l-2.6,0l0,-34.35l0,-34.35l14.75,-1.7c8.121,-0.936 51.15,-6.126 95.75,-11.55c44.6,-5.423 82.011,-9.894 83.25,-9.95l2.25,-0.1l0,34.45Z" style="fill-rule:nonzero;"/><path d="M2673.65,376c-35.702,47.4 -64.716,86.22 -64.55,86.366c0.525,0.464 128.8,-14.966 129.4,-15.566c0.275,-0.274 0.387,-35.7 0.25,-78.7l-0.25,-78.2l-64.85,86.1Z" style="fill-rule:nonzero;"/><path d="M2283.5,450.101c-20.1,2.003 -39.764,9.548 -52.6,20.181c-11.789,9.765 -22.451,26.518 -26.55,41.718c-2.211,8.2 -2.489,29.886 -0.487,38c5.354,21.7 21.25,37.924 42.637,43.514c9.704,2.536 25.3,2.98 38.2,1.087c32.5,-4.77 53.506,-18.855 65.921,-44.201c10.531,-21.5 11.256,-50.02 1.763,-69.4c-4.311,-8.8 -14.932,-19.985 -23.084,-24.31c-10.834,-5.747 -28.6,-8.303 -45.8,-6.589Z" style="fill-rule:nonzero;"/><path d="M1444.5,414.5c-46.2,5.555 -84,10.528 -84,11.05c0,0.524 18.871,27.55 42,60.15c31.783,44.8 42.264,58.909 43.089,58c1.906,-2.1 83.759,-138.67 83.311,-139.003c-0.22,-0.163 -38.2,4.248 -84.4,9.803Z" style="fill-rule:nonzero;"/><path d="M925.2,471.007c-4.6,0.489 -8.581,1.074 -8.8,1.293c-0.435,0.435 50.4,112.8 51.619,114.1c2.062,2.198 20.343,-13.1 27.008,-22.6c7.778,-11.084 9.473,-17.4 9.473,-35.3c0,-12.1 -0.366,-16.063 -1.89,-20.5c-6.517,-18.976 -18.51,-29.738 -39.01,-35.007c-9.005,-2.315 -26.7,-3.229 -38.4,-1.986Z" style="fill-rule:nonzero;"/><path d="M828,482.55c-0.822,0.192 -3.65,0.622 -6.25,0.95l-4.75,0.6l0,131l3.25,-0.55c1.79,-0.302 18.25,-2.323 36.65,-4.5c18.4,-2.176 33.579,-4.152 33.8,-4.4c0.22,-0.247 -1.157,-3.55 -3.064,-7.35c-5.344,-10.643 -17.37,-37.3 -29.912,-66.3c-22.36,-51.7 -21.505,-50.003 -25.124,-49.893c-1.7,0.051 -3.778,0.252 -4.6,0.443Z" style="fill-rule:nonzero;"/><path d="M385.74,607.1c-1.218,1.92 -37.554,69.6 -107.481,200.2c-4.658,8.7 -8.235,16.025 -7.959,16.3c0.471,0.472 233.8,-27.4 234.4,-28c0.359,-0.359 -114.972,-188.1 -116.658,-189.9c-0.476,-0.508 -1.477,0.1 -2.302,1.4Z" style="fill-rule:nonzero;"/></g></svg>
