<?xml version="1.0" encoding="UTF-8" standalone="no"?>
<svg
   version="1.1"
   id="Layer_1"
   x="0"
   y="0"
   width="52"
   height="52"
   viewBox="0 0 52 52"
   xml:space="preserve"
   sodipodi:docname="ans-logo.svg"
   inkscape:export-filename="/home/brunomiguel/projectos/fosshost/aarch64.com/public/sponsors/ans-logo.png"
   inkscape:export-xdpi="221.53999"
   inkscape:export-ydpi="221.53999"
   inkscape:version="1.1.2 (0a00cf5339, 2022-02-04, custom)"
   xmlns:inkscape="http://www.inkscape.org/namespaces/inkscape"
   xmlns:sodipodi="http://sodipodi.sourceforge.net/DTD/sodipodi-0.dtd"
   xmlns="http://www.w3.org/2000/svg"
   xmlns:svg="http://www.w3.org/2000/svg"><defs
     id="defs9" /><sodipodi:namedview
     id="namedview7"
     pagecolor="#505050"
     bordercolor="#ffffff"
     borderopacity="1"
     inkscape:pageshadow="0"
     inkscape:pageopacity="0"
     inkscape:pagecheckerboard="1"
     showgrid="false"
     inkscape:zoom="3.997873"
     inkscape:cx="24.137836"
     inkscape:cy="28.515163"
     inkscape:window-width="1366"
     inkscape:window-height="720"
     inkscape:window-x="0"
     inkscape:window-y="0"
     inkscape:window-maximized="1"
     inkscape:current-layer="Layer_1" /><g
     id="g28"
     transform="matrix(0.58631848,0,0,0.58631848,10.75572,0)"><path
       fill="#2e104b"
       d="M 52,52 H 0 V 0 H 52 Z M 1,51 H 51 V 1 H 1 Z"
       id="path2" /><path
       fill="#2e104b"
       d="m 18.038,24.687 c 0,-1.678 -0.568,-2.827 -1.686,-3.41 C 15.766,20.959 14.914,20.8 13.796,20.8 H 8.15 c 0,0 -0.32,2.085 1.953,2.085 2.45,0.018 2.663,0 2.663,0 0.976,0 1.651,0.141 1.988,0.424 0.337,0.283 0.515,0.813 0.515,1.59 H 11.63 c -1.438,0 -2.485,0.247 -3.142,0.742 -0.657,0.512 -0.976,1.343 -0.976,2.491 0,0.954 0.284,1.696 0.834,2.244 0.55,0.548 1.349,0.813 2.361,0.813 h 7.332 v -6.502 z m -6.213,4.487 c -0.479,0 -0.834,-0.088 -1.101,-0.265 -0.266,-0.177 -0.391,-0.459 -0.391,-0.866 0,-0.495 0.177,-0.83 0.515,-0.989 0.231,-0.106 0.621,-0.159 1.189,-0.159 h 3.249 v 2.279 z m 19.385,2.014 c 0,0 -2.698,0.3 -2.716,-2.102 -0.035,-2.385 0,-4.152 0,-4.152 a 0.918,0.918 0 0 1 0,-0.318 c 0,-0.477 -0.089,-0.813 -0.249,-1.025 -0.284,-0.353 -0.817,-0.53 -1.615,-0.53 H 24.429 V 31.17 H 21.766 V 20.8 h 5.13 c 1.509,0 2.574,0.23 3.195,0.707 0.746,0.565 1.136,1.608 1.136,3.092 v 6.59 H 31.21 Z m 13.279,-3.427 c 0,1.042 -0.249,1.873 -0.746,2.509 -0.497,0.618 -1.189,0.919 -2.077,0.919 l -7.101,-0.018 c 0,0 -0.142,-2.085 1.971,-2.085 h 3.852 c 0.994,0 1.491,-0.371 1.491,-1.078 0,-0.707 -0.497,-1.042 -1.491,-1.042 h -2.964 c -0.799,0 -1.438,-0.141 -1.882,-0.424 -0.728,-0.459 -1.083,-1.272 -1.083,-2.456 0,-2.191 1.207,-3.286 3.621,-3.286 l 5.805,0.018 c 0,0 0.355,2.049 -1.615,2.085 -1.97,0.035 -3.604,0 -3.604,0 -0.976,0 -1.473,0.3 -1.473,0.901 v 0.159 c 0.053,0.601 0.497,0.901 1.331,0.901 h 2.521 c 1.03,0 1.811,0.177 2.361,0.53 0.728,0.494 1.083,1.271 1.083,2.367 z"
       id="path4" /></g></svg>
