<svg xmlns="http://www.w3.org/2000/svg" width="154.94" height="34.486" viewBox="0 0 154.94 34.486"><g transform="translate(-220.64 -73.428)"><path d="M259.376,73.428H246.747a11.765,11.765,0,0,0-10.731,7.019h10.84c.038,0,.076,0,.115,0h11.722a5.762,5.762,0,0,1,5.745,5.745h0a5.762,5.762,0,0,1-5.745,5.745H246.971a5.711,5.711,0,0,1-3.434-1.146h-7.958a11.773,11.773,0,0,0,11.168,8.162h12.629A11.761,11.761,0,0,0,271.1,87.224V85.155A11.761,11.761,0,0,0,259.376,73.428Z" fill="#afc75a"/><path d="M232.367,107.914H245a11.765,11.765,0,0,0,10.731-7.018H244.887l-.114,0H233.051a5.763,5.763,0,0,1-5.746-5.746h0a5.763,5.763,0,0,1,5.746-5.745h11.722a5.708,5.708,0,0,1,3.433,1.146h7.958A11.771,11.771,0,0,0,245,82.392h-12.63A11.761,11.761,0,0,0,220.64,94.118v2.069A11.761,11.761,0,0,0,232.367,107.914Z" fill="#827e7c"/><path d="M264.438,86.189h0a5.762,5.762,0,0,1-5.745,5.745H246.971a5.711,5.711,0,0,1-3.434-1.146h-7.958a11.773,11.773,0,0,0,11.168,8.162h12.629A11.761,11.761,0,0,0,271.1,87.224V86.192" fill="#74aa17"/><path d="M220.64,95.156v1.031a11.761,11.761,0,0,0,11.727,11.727H245a11.765,11.765,0,0,0,10.731-7.018H244.887l-.114,0H233.051a5.763,5.763,0,0,1-5.746-5.746h0" fill="#b6b3b3"/><rect width="95.041" height="0.69" transform="translate(279.594 91.356)" fill="#afc75a"/><g transform="translate(1 2)"><path d="M279.649,79.392a6.373,6.373,0,0,1,.378-2.142,5.935,5.935,0,0,1,1.1-1.907,5.646,5.646,0,0,1,1.78-1.369,5.3,5.3,0,0,1,2.4-.529,4.98,4.98,0,0,1,2.73.722,4.4,4.4,0,0,1,1.672,1.882l-.924.571a3.552,3.552,0,0,0-.7-.991,3.9,3.9,0,0,0-.882-.655,3.73,3.73,0,0,0-.975-.361,4.651,4.651,0,0,0-.991-.11,3.991,3.991,0,0,0-1.9.437,4.37,4.37,0,0,0-1.386,1.143,4.974,4.974,0,0,0-.848,1.587,5.756,5.756,0,0,0-.286,1.789,5.31,5.31,0,0,0,.344,1.9,5.409,5.409,0,0,0,.941,1.6,4.52,4.52,0,0,0,1.411,1.108,3.867,3.867,0,0,0,1.773.412,4.452,4.452,0,0,0,1.033-.126,3.981,3.981,0,0,0,1.025-.4,4.307,4.307,0,0,0,.915-.689,3.557,3.557,0,0,0,.706-1l.974.5a3.661,3.661,0,0,1-.806,1.184,5.3,5.3,0,0,1-1.16.865,5.719,5.719,0,0,1-1.352.537,5.545,5.545,0,0,1-1.4.185A4.776,4.776,0,0,1,282.975,85a5.9,5.9,0,0,1-1.763-1.4,6.5,6.5,0,0,1-1.151-1.965A6.343,6.343,0,0,1,279.649,79.392Z" fill="#091d23"/><path d="M296.8,84.465a3.721,3.721,0,0,0,1.873-.428,3.4,3.4,0,0,0,1.193-1.126,4.56,4.56,0,0,0,.621-1.587,9.2,9.2,0,0,0,.177-1.8V73.512h1.176v6.014a9.511,9.511,0,0,1-.269,2.294,5.474,5.474,0,0,1-.865,1.906,4.275,4.275,0,0,1-1.554,1.31,5.105,5.105,0,0,1-2.335.488,5.015,5.015,0,0,1-2.377-.513,4.338,4.338,0,0,1-1.554-1.352,5.465,5.465,0,0,1-.84-1.915,9.688,9.688,0,0,1-.252-2.218V73.512h1.159v6.014a8.92,8.92,0,0,0,.185,1.831,4.58,4.58,0,0,0,.63,1.579,3.347,3.347,0,0,0,1.184,1.109A3.7,3.7,0,0,0,296.8,84.465Z" fill="#091d23"/><path d="M311.617,75.746a3.639,3.639,0,0,0-1.343-.923,4.9,4.9,0,0,0-1.916-.353,3.6,3.6,0,0,0-2.3.6,1.99,1.99,0,0,0-.722,1.621,1.784,1.784,0,0,0,.193.882,1.675,1.675,0,0,0,.6.6,4.175,4.175,0,0,0,1.033.436q.63.186,1.487.37a16.113,16.113,0,0,1,1.722.454,4.961,4.961,0,0,1,1.3.629,2.636,2.636,0,0,1,.823.916,2.848,2.848,0,0,1,.286,1.344,3.027,3.027,0,0,1-.319,1.428,2.861,2.861,0,0,1-.891,1.008,3.949,3.949,0,0,1-1.361.6,7.262,7.262,0,0,1-1.73.193,7.11,7.11,0,0,1-4.788-1.73l.588-.958a4.639,4.639,0,0,0,.765.639,5.536,5.536,0,0,0,.991.529,6.316,6.316,0,0,0,1.167.353,6.583,6.583,0,0,0,1.311.126,4.106,4.106,0,0,0,2.226-.513,1.721,1.721,0,0,0,.8-1.553,1.786,1.786,0,0,0-.226-.933,1.97,1.97,0,0,0-.681-.655,4.825,4.825,0,0,0-1.125-.479q-.672-.2-1.563-.4-.94-.217-1.646-.453a4.383,4.383,0,0,1-1.193-.589,2.276,2.276,0,0,1-.73-.848,2.734,2.734,0,0,1-.244-1.218,3.361,3.361,0,0,1,.311-1.47,2.888,2.888,0,0,1,.882-1.075,4.179,4.179,0,0,1,1.344-.655,6.075,6.075,0,0,1,1.713-.227,5.865,5.865,0,0,1,2.125.361,5.706,5.706,0,0,1,1.689,1.017Z" fill="#091d23"/><path d="M323.226,74.554h-4.25V85.439H317.8V74.554h-4.251V73.512h9.677Z" fill="#091d23"/><path d="M329.257,85.524a5.05,5.05,0,0,1-2.277-.513,5.654,5.654,0,0,1-1.772-1.36,6.193,6.193,0,0,1-1.142-1.941,6.394,6.394,0,0,1-.4-2.234,6.2,6.2,0,0,1,.428-2.285,6.317,6.317,0,0,1,1.184-1.932,5.737,5.737,0,0,1,1.781-1.335,5.016,5.016,0,0,1,2.217-.5,4.92,4.92,0,0,1,2.277.53,5.724,5.724,0,0,1,1.764,1.385,6.4,6.4,0,0,1,1.133,1.941,6.284,6.284,0,0,1,.4,2.209,6.186,6.186,0,0,1-.429,2.284,6.271,6.271,0,0,1-1.176,1.924,5.684,5.684,0,0,1-1.772,1.327A5.016,5.016,0,0,1,329.257,85.524Zm-4.419-6.048a5.548,5.548,0,0,0,.32,1.873,5.085,5.085,0,0,0,.907,1.6,4.459,4.459,0,0,0,1.394,1.109,3.9,3.9,0,0,0,1.8.411,3.847,3.847,0,0,0,1.831-.436,4.48,4.48,0,0,0,1.394-1.143,5.261,5.261,0,0,0,.882-1.6,5.47,5.47,0,0,0,.311-1.814,5.414,5.414,0,0,0-.328-1.873,5.126,5.126,0,0,0-.915-1.588,4.534,4.534,0,0,0-1.4-1.1,3.861,3.861,0,0,0-1.78-.412,3.906,3.906,0,0,0-1.832.429,4.358,4.358,0,0,0-1.394,1.134,5.261,5.261,0,0,0-.882,1.6A5.47,5.47,0,0,0,324.838,79.476Z" fill="#091d23"/><path d="M337.068,85.439V73.512h4.049a6.131,6.131,0,0,1,2.494.471,5.074,5.074,0,0,1,1.781,1.276,5.392,5.392,0,0,1,1.075,1.89,7.254,7.254,0,0,1,.361,2.31,7.105,7.105,0,0,1-.4,2.461,5.333,5.333,0,0,1-1.151,1.882,5.124,5.124,0,0,1-1.8,1.209,6.191,6.191,0,0,1-2.36.428Zm8.584-5.98a6.154,6.154,0,0,0-.3-1.974,4.478,4.478,0,0,0-.882-1.554,3.964,3.964,0,0,0-1.419-1.016,4.856,4.856,0,0,0-1.932-.361h-2.873V84.4h2.873a4.768,4.768,0,0,0,1.957-.378,3.988,3.988,0,0,0,1.419-1.041,4.524,4.524,0,0,0,.865-1.563A6.259,6.259,0,0,0,345.652,79.459Z" fill="#091d23"/><path d="M349.079,85.439V73.512h1.176V85.439Z" fill="#091d23"/><path d="M356.941,73.512h.991l4.956,11.927h-1.243L360.1,81.71H354.74l-1.529,3.729h-1.26Zm2.889,7.274-2.4-5.9-2.436,5.9Z" fill="#091d23"/><path d="M365.777,75.7v9.743H364.6V73.512h.907l7.9,9.929V73.529h1.176v11.91h-1.025Z" fill="#091d23"/></g><path d="M280.261,107.835V98.522h3.161a4.791,4.791,0,0,1,1.948.368,3.955,3.955,0,0,1,1.39,1,4.2,4.2,0,0,1,.84,1.475,5.672,5.672,0,0,1,.282,1.8,5.545,5.545,0,0,1-.315,1.921,4.191,4.191,0,0,1-.9,1.47,4.038,4.038,0,0,1-1.4.944,4.842,4.842,0,0,1-1.843.334Zm6.7-4.669a4.784,4.784,0,0,0-.237-1.541,3.488,3.488,0,0,0-.688-1.214,3.081,3.081,0,0,0-1.109-.793,3.77,3.77,0,0,0-1.508-.283h-2.243v7.687h2.243a3.719,3.719,0,0,0,1.528-.3,3.12,3.12,0,0,0,1.109-.813,3.535,3.535,0,0,0,.675-1.22A4.891,4.891,0,0,0,286.964,103.166Z" fill="#091d23"/><path d="M292.2,98.522h.774l3.87,9.313h-.971l-1.207-2.912h-4.184l-1.194,2.912H288.3Zm2.256,5.68-1.875-4.6-1.9,4.6Z" fill="#091d23"/><path d="M303.871,99.335h-3.318v8.5h-.918v-8.5h-3.319v-.813h7.555Z" fill="#091d23"/><path d="M307.23,98.522H308l3.87,9.313H310.9l-1.206-2.912h-4.185l-1.193,2.912h-.984Zm2.256,5.68-1.876-4.6-1.9,4.6Z" fill="#091d23"/><path d="M315.532,103.113a4.972,4.972,0,0,1,.3-1.672,4.624,4.624,0,0,1,.859-1.489,4.391,4.391,0,0,1,1.39-1.069,4.13,4.13,0,0,1,1.876-.413,3.882,3.882,0,0,1,2.131.564,3.432,3.432,0,0,1,1.306,1.469l-.722.446a2.769,2.769,0,0,0-.544-.774,3.065,3.065,0,0,0-.689-.512,2.916,2.916,0,0,0-.761-.282,3.7,3.7,0,0,0-.774-.085,3.119,3.119,0,0,0-1.482.341,3.419,3.419,0,0,0-1.082.892,3.9,3.9,0,0,0-.663,1.24,4.523,4.523,0,0,0-.222,1.4,4.123,4.123,0,0,0,.269,1.482,4.211,4.211,0,0,0,.734,1.253,3.537,3.537,0,0,0,1.1.865,3.015,3.015,0,0,0,1.384.322,3.449,3.449,0,0,0,.806-.1,3.094,3.094,0,0,0,.8-.314,3.405,3.405,0,0,0,.714-.538,2.747,2.747,0,0,0,.551-.781l.761.394a2.857,2.857,0,0,1-.63.925,4.152,4.152,0,0,1-.9.675,4.477,4.477,0,0,1-1.056.42,4.359,4.359,0,0,1-1.1.144,3.728,3.728,0,0,1-1.758-.42,4.593,4.593,0,0,1-1.377-1.1,5.066,5.066,0,0,1-.9-1.535A4.941,4.941,0,0,1,315.532,103.113Z" fill="#091d23"/><path d="M331.4,107.022v.813h-6.257V98.522h6.139v.813h-5.221v3.358h4.552v.774h-4.552v3.555Z" fill="#091d23"/><path d="M334.054,100.227v7.608h-.919V98.522h.709l6.165,7.752V98.535h.918v9.3h-.8Z" fill="#091d23"/><path d="M349.872,99.335h-3.318v8.5h-.918v-8.5h-3.319v-.813h7.555Z" fill="#091d23"/><path d="M351.263,107.835V98.522H355.2a2.409,2.409,0,0,1,1.108.256,2.92,2.92,0,0,1,.873.669,3.064,3.064,0,0,1,.57.938,2.911,2.911,0,0,1,.2,1.063,3.173,3.173,0,0,1-.15.977,3.041,3.041,0,0,1-.42.839,2.556,2.556,0,0,1-.649.63,2.3,2.3,0,0,1-.853.347l2.282,3.594h-1.036l-2.19-3.436h-2.755v3.436Zm.918-4.249h3.043a1.571,1.571,0,0,0,.741-.177,1.79,1.79,0,0,0,.571-.479,2.346,2.346,0,0,0,.367-.682,2.428,2.428,0,0,0,.131-.8,2.19,2.19,0,0,0-.151-.807,2.234,2.234,0,0,0-.406-.676,1.956,1.956,0,0,0-.6-.459,1.638,1.638,0,0,0-.727-.171h-2.965Z" fill="#091d23"/><path d="M366.085,107.022v.813h-6.257V98.522h6.139v.813h-5.22v3.358H365.3v.774h-4.551v3.555Z" fill="#091d23"/><path d="M373.063,100.267a2.841,2.841,0,0,0-1.049-.722,3.843,3.843,0,0,0-1.495-.275,2.8,2.8,0,0,0-1.8.466,1.551,1.551,0,0,0-.565,1.265,1.4,1.4,0,0,0,.151.689,1.322,1.322,0,0,0,.466.466,3.266,3.266,0,0,0,.807.341q.492.144,1.16.288a12.414,12.414,0,0,1,1.345.355,3.881,3.881,0,0,1,1.017.491,2.059,2.059,0,0,1,.642.715,2.218,2.218,0,0,1,.223,1.05,2.361,2.361,0,0,1-.249,1.115,2.231,2.231,0,0,1-.7.787,3.1,3.1,0,0,1-1.062.465,5.671,5.671,0,0,1-1.352.151,5.55,5.55,0,0,1-3.738-1.351l.459-.748a3.6,3.6,0,0,0,.6.5,4.33,4.33,0,0,0,.774.413,4.866,4.866,0,0,0,.912.275,5.1,5.1,0,0,0,1.022.1,3.206,3.206,0,0,0,1.739-.4,1.345,1.345,0,0,0,.623-1.214,1.4,1.4,0,0,0-.177-.728,1.549,1.549,0,0,0-.532-.511,3.773,3.773,0,0,0-.879-.374q-.523-.158-1.219-.315-.735-.169-1.286-.354a3.4,3.4,0,0,1-.931-.459,1.792,1.792,0,0,1-.571-.663,2.134,2.134,0,0,1-.19-.951,2.614,2.614,0,0,1,.243-1.147,2.248,2.248,0,0,1,.688-.84,3.261,3.261,0,0,1,1.05-.511,4.741,4.741,0,0,1,1.338-.177,4.569,4.569,0,0,1,1.659.282,4.451,4.451,0,0,1,1.318.793Z" fill="#091d23"/></g></svg>