<?xml version="1.0" encoding="UTF-8" standalone="no"?><!DOCTYPE svg PUBLIC "-//W3C//DTD SVG 1.1//EN" "http://www.w3.org/Graphics/SVG/1.1/DTD/svg11.dtd"><svg width="100%" height="100%" viewBox="0 0 85 21" version="1.1" xmlns="http://www.w3.org/2000/svg" xmlns:xlink="http://www.w3.org/1999/xlink" xml:space="preserve" xmlns:serif="http://www.serif.com/" style="fill-rule:evenodd;clip-rule:evenodd;stroke-linejoin:round;stroke-miterlimit:2;"><g id="Logo"><g><path d="M28.536,17.971c-0.023,0.14 0.07,0.234 0.21,0.234l2.147,0c0.14,0 0.21,-0.094 0.233,-0.234l1.144,-6.463c0.023,-0.093 0.07,-0.14 0.163,-0.14l5.856,0c0.094,0 0.14,0.047 0.117,0.14l-1.12,6.463c-0.023,0.14 0.047,0.234 0.187,0.234l2.123,0c0.14,0 0.233,-0.094 0.257,-0.234l2.73,-15.399c0.023,-0.14 -0.07,-0.233 -0.21,-0.233l-2.124,0c-0.14,0 -0.21,0.093 -0.233,0.233l-1.12,6.323c-0.023,0.093 -0.07,0.14 -0.163,0.14l-5.88,0c-0.093,0 -0.14,-0.047 -0.117,-0.14l1.12,-6.323c0.024,-0.14 -0.046,-0.233 -0.186,-0.233l-2.147,0c-0.14,0 -0.233,0.093 -0.257,0.233l-2.73,15.399Z" style="fill-rule:nonzero;"/><path d="M42.746,17.971c-0.023,0.14 0.07,0.234 0.21,0.234l2.147,0c0.14,0 0.21,-0.094 0.233,-0.234l2.73,-15.399c0.023,-0.14 -0.047,-0.233 -0.187,-0.233l-2.146,0c-0.14,0 -0.234,0.093 -0.257,0.233l-2.73,15.399Z" style="fill-rule:nonzero;"/><path d="M54.296,18.205c0.14,0 0.21,-0.094 0.28,-0.234l7.606,-15.399c0.07,-0.14 -0.023,-0.233 -0.163,-0.233l-2.217,0c-0.187,0 -0.257,0.07 -0.35,0.233l-5.343,11.503l-0.07,0l-1.4,-11.503c-0.023,-0.163 -0.117,-0.233 -0.303,-0.233l-2.054,0c-0.14,0 -0.233,0.093 -0.21,0.233l2.124,15.399c0.023,0.14 0.093,0.234 0.233,0.234l1.867,0Z" style="fill-rule:nonzero;"/><path d="M60.969,17.971c-0.024,0.14 0.07,0.234 0.21,0.234l9.473,0c0.14,0 0.233,-0.094 0.256,-0.234l0.327,-1.866c0.023,-0.14 -0.047,-0.234 -0.187,-0.234l-6.976,0c-0.093,0 -0.14,-0.046 -0.117,-0.14l0.747,-4.223c0.023,-0.093 0.07,-0.14 0.163,-0.14l5.88,0c0.14,0 0.257,-0.093 0.28,-0.233l0.35,-1.867c0.023,-0.14 -0.047,-0.233 -0.187,-0.233l-5.903,0c-0.093,0 -0.14,-0.047 -0.116,-0.14l0.723,-4.083c0.023,-0.093 0.07,-0.14 0.163,-0.14l6.977,0c0.14,0 0.256,-0.093 0.28,-0.233l0.326,-1.867c0.024,-0.14 -0.07,-0.233 -0.21,-0.233l-9.473,0c-0.14,0 -0.233,0.093 -0.256,0.233l-2.73,15.399Z" style="fill-rule:nonzero;"/><path d="M76.312,6.798c-0.007,0.039 0.019,0.066 0.059,0.066l1.525,0c0.729,0 1.222,-0.204 1.544,-0.868c0.27,-0.539 0.467,-1.814 0.467,-2.366c0,-0.776 -0.381,-1.236 -1.229,-1.236l-1.525,0c-0.04,0 -0.066,0.026 -0.072,0.066l-0.769,4.338Zm0.841,-0.631l0.545,-3.076c0.007,-0.027 0.014,-0.04 0.04,-0.04l0.657,0c0.513,0 0.802,0.204 0.802,0.723c0,0.401 -0.204,1.525 -0.361,1.854c-0.204,0.407 -0.52,0.578 -0.993,0.578l-0.657,0c-0.027,0 -0.04,-0.013 -0.033,-0.039Z" style="fill-rule:nonzero;"/><path d="M81.052,5.595c0,0.881 0.545,1.341 1.334,1.341c0.69,0 1.183,-0.283 1.591,-0.947c0.02,-0.032 0.013,-0.065 -0.013,-0.078l-0.48,-0.25c-0.04,-0.02 -0.072,0 -0.092,0.033c-0.197,0.322 -0.506,0.578 -0.888,0.578c-0.46,0 -0.703,-0.283 -0.703,-0.736c0,-0.322 0.197,-1.565 0.375,-1.939c0.184,-0.375 0.466,-0.618 0.894,-0.618c0.42,0 0.611,0.263 0.696,0.585c0.007,0.033 0.04,0.053 0.079,0.033l0.52,-0.23c0.039,-0.013 0.059,-0.046 0.046,-0.079c-0.145,-0.592 -0.585,-0.966 -1.256,-0.966c-0.749,0 -1.295,0.315 -1.637,1.025c-0.23,0.454 -0.466,1.88 -0.466,2.248Z" style="fill-rule:nonzero;"/></g><g id="Gradient"><path d="M23.19,6.216l-0.544,3.485l-20.492,0l0.544,-3.485l-1.378,0l-1.32,8.455l1.378,0l0.563,-3.608l20.493,0l-0.563,3.608l1.377,0l1.32,-8.455l-1.378,0Z" style="fill:url(#_Radial1);fill-rule:nonzero;"/><path d="M5.198,6.216c-0.376,0 -0.68,0.305 -0.68,0.68c0,0.376 0.304,0.681 0.68,0.681l15.889,0c0.376,0 0.681,-0.305 0.681,-0.681c0,-0.375 -0.305,-0.68 -0.681,-0.68l-15.889,0Z" style="fill:url(#_Radial2);fill-rule:nonzero;"/><path d="M4.179,3.004c-0.376,0 -0.681,0.305 -0.681,0.68c0,0.376 0.305,0.681 0.681,0.681l16.203,0c0.376,0 0.68,-0.305 0.68,-0.681c0,-0.375 -0.304,-0.68 -0.68,-0.68l-16.203,0Z" style="fill:url(#_Radial3);fill-rule:nonzero;"/><path d="M6.779,0c-0.376,0 -0.68,0.305 -0.68,0.681c0,0.375 0.304,0.68 0.68,0.68l11.08,0c0.375,0 0.68,-0.305 0.68,-0.68c0,-0.376 -0.305,-0.681 -0.68,-0.681l-11.08,0Z" style="fill:url(#_Radial4);fill-rule:nonzero;"/><path d="M3.787,13.319c-0.376,0 -0.681,0.305 -0.681,0.68c0,0.376 0.305,0.681 0.681,0.681l15.889,0c0.376,0 0.681,-0.305 0.681,-0.681c0,-0.375 -0.305,-0.68 -0.681,-0.68l-15.889,0Z" style="fill:url(#_Radial5);fill-rule:nonzero;"/><path d="M4.414,16.531c-0.376,0 -0.68,0.305 -0.68,0.681c0,0.376 0.304,0.68 0.68,0.68l15.968,0c0.376,0 0.68,-0.304 0.68,-0.68c0,-0.376 -0.304,-0.681 -0.68,-0.681l-15.968,0Z" style="fill:url(#_Radial6);fill-rule:nonzero;"/><path d="M6.779,19.535c-0.376,0 -0.68,0.304 -0.68,0.68c0,0.376 0.304,0.681 0.68,0.681l11.08,0c0.375,0 0.68,-0.305 0.68,-0.681c0,-0.376 -0.305,-0.68 -0.68,-0.68l-11.08,0Z" style="fill:url(#_Radial7);fill-rule:nonzero;"/></g></g><defs><radialGradient id="_Radial1" cx="0" cy="0" r="1" gradientUnits="userSpaceOnUse" gradientTransform="matrix(-7.19691,108.571,-108.571,-7.19691,21.1905,-6.23611)"><stop offset="0" style="stop-color:#fdcb00;stop-opacity:1"/><stop offset="0.1" style="stop-color:#fdcb00;stop-opacity:1"/><stop offset="0.47" style="stop-color:#fe4a31;stop-opacity:1"/><stop offset="1" style="stop-color:#fe4a31;stop-opacity:1"/></radialGradient><radialGradient id="_Radial2" cx="0" cy="0" r="1" gradientUnits="userSpaceOnUse" gradientTransform="matrix(-7.19691,108.571,-108.571,-7.19691,21.1905,-6.23611)"><stop offset="0" style="stop-color:#fdcb00;stop-opacity:1"/><stop offset="0.1" style="stop-color:#fdcb00;stop-opacity:1"/><stop offset="0.47" style="stop-color:#fe4a31;stop-opacity:1"/><stop offset="1" style="stop-color:#fe4a31;stop-opacity:1"/></radialGradient><radialGradient id="_Radial3" cx="0" cy="0" r="1" gradientUnits="userSpaceOnUse" gradientTransform="matrix(-7.19691,108.571,-108.571,-7.19691,21.1905,-6.23611)"><stop offset="0" style="stop-color:#fdcb00;stop-opacity:1"/><stop offset="0.1" style="stop-color:#fdcb00;stop-opacity:1"/><stop offset="0.47" style="stop-color:#fe4a31;stop-opacity:1"/><stop offset="1" style="stop-color:#fe4a31;stop-opacity:1"/></radialGradient><radialGradient id="_Radial4" cx="0" cy="0" r="1" gradientUnits="userSpaceOnUse" gradientTransform="matrix(-7.19691,108.571,-108.571,-7.19691,21.1905,-6.23611)"><stop offset="0" style="stop-color:#fdcb00;stop-opacity:1"/><stop offset="0.1" style="stop-color:#fdcb00;stop-opacity:1"/><stop offset="0.47" style="stop-color:#fe4a31;stop-opacity:1"/><stop offset="1" style="stop-color:#fe4a31;stop-opacity:1"/></radialGradient><radialGradient id="_Radial5" cx="0" cy="0" r="1" gradientUnits="userSpaceOnUse" gradientTransform="matrix(-7.19691,108.571,-108.571,-7.19691,21.1905,-6.23611)"><stop offset="0" style="stop-color:#fdcb00;stop-opacity:1"/><stop offset="0.1" style="stop-color:#fdcb00;stop-opacity:1"/><stop offset="0.47" style="stop-color:#fe4a31;stop-opacity:1"/><stop offset="1" style="stop-color:#fe4a31;stop-opacity:1"/></radialGradient><radialGradient id="_Radial6" cx="0" cy="0" r="1" gradientUnits="userSpaceOnUse" gradientTransform="matrix(-7.19691,108.571,-108.571,-7.19691,21.1905,-6.23611)"><stop offset="0" style="stop-color:#fdcb00;stop-opacity:1"/><stop offset="0.1" style="stop-color:#fdcb00;stop-opacity:1"/><stop offset="0.47" style="stop-color:#fe4a31;stop-opacity:1"/><stop offset="1" style="stop-color:#fe4a31;stop-opacity:1"/></radialGradient><radialGradient id="_Radial7" cx="0" cy="0" r="1" gradientUnits="userSpaceOnUse" gradientTransform="matrix(-7.19691,108.571,-108.571,-7.19691,21.1905,-6.23611)"><stop offset="0" style="stop-color:#fdcb00;stop-opacity:1"/><stop offset="0.1" style="stop-color:#fdcb00;stop-opacity:1"/><stop offset="0.47" style="stop-color:#fe4a31;stop-opacity:1"/><stop offset="1" style="stop-color:#fe4a31;stop-opacity:1"/></radialGradient></defs></svg>